# xmcd
#
# Track frame offsets:
#  150
#  9280
#  28068
#  36945
#  48986
#  60473
#  73060
#  87474
#  101240
#  102759
#
# Disc length: 1454 seconds
#
# Revision: 0
# Processed by: cddbd v1.5.1PL2 Copyright (c) Steve Scherf et al.
# Submitted via: Collectorz.com_Music_Collector 6.9
#
DISCID=7f05ac0a
DTITLE=NYC Blues Devils - NYC Blues Devils
DYEAR=1900
DGENRE=
TTITLE0=You'll Be Mine
TTITLE1=Me and My Gin
TTITLE2=Your Man
TTITLE3=Me Myself and I
TTITLE4=Give Me Back My Wig
TTITLE5=Dream A Little Dream Of Me
TTITLE6=I'm A King Bee
TTITLE7=Is You Is Or Is You Aint My Baby
TTITLE8=Yeah!
TTITLE9=Nagasaki
EXTD=
EXTT0=
EXTT1=
EXTT2=
EXTT3=
EXTT4=
EXTT5=
EXTT6=
EXTT7=
EXTT8=
EXTT9=
PLAYORDER=
